<?xml version="1.0" encoding="UTF-8" standalone="no"?>
<svg
   width="1375"
   height="800"
   version="1.1"
   id="svg1"
   sodipodi:docname="beth-aharon.svg"
   xml:space="preserve"
   inkscape:version="1.3.2 (091e20e, 2023-11-25, custom)"
   xmlns:inkscape="http://www.inkscape.org/namespaces/inkscape"
   xmlns:sodipodi="http://sodipodi.sourceforge.net/DTD/sodipodi-0.dtd"
   xmlns="http://www.w3.org/2000/svg"
   xmlns:svg="http://www.w3.org/2000/svg"><defs
     id="defs1" /><sodipodi:namedview
     id="namedview1"
     pagecolor="#ffffff"
     bordercolor="#666666"
     borderopacity="1.0"
     inkscape:showpageshadow="2"
     inkscape:pageopacity="0.0"
     inkscape:pagecheckerboard="0"
     inkscape:deskcolor="#d1d1d1"
     inkscape:zoom="0.42254842"
     inkscape:cx="1023.5513"
     inkscape:cy="789.25866"
     inkscape:window-width="2462"
     inkscape:window-height="1406"
     inkscape:window-x="-11"
     inkscape:window-y="-11"
     inkscape:window-maximized="1"
     inkscape:current-layer="svg1"
     showgrid="false" /><g
     id="g1"
     transform="translate(37.865483,54.431632)"><path
       d="M 47.631413,492.11477 552.36859,492.11491 300,54.999953 Z M 300,637.81981 552.36851,200.70493 47.631403,200.70481 Z"
       fill="none"
       stroke="#0000ff"
       stroke-width="55"
       id="path1"
       style="fill:#0138b7;fill-opacity:1;stroke:#0138ff;stroke-opacity:1" /><path
       sodipodi:type="star"
       style="fill:#0138b7;fill-opacity:1;stroke:none;stroke-width:22;paint-order:stroke fill markers"
       id="path2"
       inkscape:flatsided="false"
       sodipodi:sides="3"
       sodipodi:cx="20.116037"
       sodipodi:cy="72.772728"
       sodipodi:r1="98.024513"
       sodipodi:r2="49.012257"
       sodipodi:arg1="1.5707963"
       sodipodi:arg2="2.6179939"
       inkscape:rounded="0"
       inkscape:randomized="0"
       d="m 20.11604,170.79724 -42.445863,-73.518385 -42.44586,-73.518381 84.891721,-3e-6 84.891712,-2e-6 -42.445854,73.518388 z"
       inkscape:transform-center-y="24.506129"
       transform="translate(160.12333,204.69025)" /><path
       sodipodi:type="star"
       style="fill:#0138b7;fill-opacity:1;stroke:none;stroke-width:22;paint-order:stroke fill markers"
       id="path3"
       inkscape:flatsided="false"
       sodipodi:sides="3"
       sodipodi:cx="99.569305"
       sodipodi:cy="463.54114"
       sodipodi:r1="84.711128"
       sodipodi:r2="42.355564"
       sodipodi:arg1="0.52359878"
       sodipodi:arg2="1.5707963"
       inkscape:rounded="0"
       inkscape:randomized="0"
       d="m 172.93129,505.8967 -73.361983,0 -73.361991,0 36.680994,-63.53334 36.680996,-63.53335 36.680994,63.53334 z"
       inkscape:transform-center-y="-21.177781"
       transform="translate(69.108136,-41.312896)" /><path
       sodipodi:type="star"
       style="fill:#0138b7;fill-opacity:1;stroke:none;stroke-width:22;paint-order:stroke fill markers"
       id="path2-3"
       inkscape:flatsided="false"
       sodipodi:sides="3"
       sodipodi:cx="20.116037"
       sodipodi:cy="72.772728"
       sodipodi:r1="98.024513"
       sodipodi:r2="49.012257"
       sodipodi:arg1="1.5707963"
       sodipodi:arg2="2.6179939"
       inkscape:rounded="0"
       inkscape:randomized="0"
       d="m 20.11604,170.79724 -42.445863,-73.518385 -42.44586,-73.518381 84.891721,-3e-6 84.891712,-2e-6 -42.445854,73.518388 z"
       inkscape:transform-center-y="24.506129"
       transform="translate(399.60388,204.38773)" /><path
       sodipodi:type="star"
       style="fill:#0138b7;fill-opacity:1;stroke:none;stroke-width:22;paint-order:stroke fill markers"
       id="path3-5"
       inkscape:flatsided="false"
       sodipodi:sides="3"
       sodipodi:cx="99.569305"
       sodipodi:cy="463.54114"
       sodipodi:r1="84.711128"
       sodipodi:r2="42.355564"
       sodipodi:arg1="0.52359878"
       sodipodi:arg2="1.5707963"
       inkscape:rounded="0"
       inkscape:randomized="0"
       d="m 172.93129,505.8967 -73.361983,0 -73.361991,0 36.680994,-63.53334 36.680996,-63.53335 36.680994,63.53334 z"
       inkscape:transform-center-y="-21.177781"
       transform="translate(331.81088,-41.171688)" /><path
       sodipodi:type="star"
       style="fill:#0000ff;fill-opacity:1;stroke:none;stroke-width:22;paint-order:stroke fill markers"
       id="path4"
       inkscape:flatsided="false"
       sodipodi:sides="3"
       sodipodi:cx="247.66818"
       sodipodi:cy="184.91443"
       sodipodi:r1="65.456718"
       sodipodi:r2="32.728359"
       sodipodi:arg1="0.52359878"
       sodipodi:arg2="1.5707963"
       inkscape:rounded="0"
       inkscape:randomized="0"
       d="m 304.35536,217.64279 -56.68718,0 -56.68718,0 28.34359,-49.09254 28.34359,-49.09254 28.34359,49.09254 z"
       inkscape:transform-center-y="-16.36418"
       transform="translate(53.549879,-30.121807)" /><path
       sodipodi:type="star"
       style="fill:#0000ff;fill-opacity:1;stroke:none;stroke-width:22;paint-order:stroke fill markers"
       id="path5"
       inkscape:flatsided="false"
       sodipodi:sides="3"
       sodipodi:cx="-87.018555"
       sodipodi:cy="-0.83671689"
       sodipodi:r1="74.847588"
       sodipodi:r2="37.423794"
       sodipodi:arg1="1.5707963"
       sodipodi:arg2="2.6179939"
       inkscape:rounded="0"
       inkscape:randomized="0"
       d="m -87.018553,74.010871 -32.409957,-56.135692 -32.40996,-56.135688 64.819916,-2e-6 64.819911,-10e-7 -32.409956,56.135693 z"
       inkscape:transform-center-y="18.711896"
       transform="translate(391.58349,531.31521)" /><g
       id="g5"
       transform="matrix(0.68804849,0,0,0.68804849,168.36141,236.17608)"><g
         id="g2"
         style="fill:#ffffff;fill-opacity:1"><path
           d="M 12.628,18.573 C 12.628,13.621 0,3.509 0,0 c 3.793,0 38.342,0 43.352,0 0,2.89 -12.064,13.623 -12.064,18.573 -1.885,0 -18.66,0 -18.66,0 z"
           id="path1-3"
           style="fill:#ffffff;fill-opacity:1" /><path
           d="M 12.628,40.501 C 12.628,35.549 0,25.438 0,21.928 c 3.793,0 38.342,0 43.352,0 0,2.89 -12.064,13.621 -12.064,18.573 -1.885,0 -18.66,0 -18.66,0 z"
           id="path2-7"
           style="fill:#ffffff;fill-opacity:1" /></g><g
         id="g4"
         style="fill:#ffffff;fill-opacity:1"><path
           d="M 64.359,18.573 C 64.359,13.621 51.731,3.509 51.731,0 c 3.793,0 38.343,0 43.352,0 0,2.89 -12.064,13.623 -12.064,18.573 -1.885,0 -18.66,0 -18.66,0 z"
           id="path3-9"
           style="fill:#ffffff;fill-opacity:1" /><path
           d="m 64.359,40.501 c 0,-4.952 -12.628,-15.063 -12.628,-18.573 3.793,0 38.343,0 43.352,0 0,2.89 -12.064,13.621 -12.064,18.573 -1.885,0 -18.66,0 -18.66,0 z"
           id="path4-5"
           style="fill:#ffffff;fill-opacity:1" /></g><g
         id="g6"
         style="fill:#ffffff;fill-opacity:1"><path
           d="m 117.795,18.573 c 0,-4.952 -12.629,-15.064 -12.629,-18.573 3.793,0 38.343,0 43.353,0 0,2.89 -12.064,13.623 -12.064,18.573 -1.885,0 -18.66,0 -18.66,0 z"
           id="path5-6"
           style="fill:#ffffff;fill-opacity:1" /><path
           d="m 117.795,40.501 c 0,-4.952 -12.629,-15.063 -12.629,-18.573 3.793,0 38.343,0 43.353,0 0,2.89 -12.064,13.621 -12.064,18.573 -1.885,0 -18.66,0 -18.66,0 z"
           id="path6"
           style="fill:#ffffff;fill-opacity:1" /></g><g
         id="g8"
         style="fill:#ffffff;fill-opacity:1"><path
           d="M 250.25,18.573 C 250.25,13.621 237.62,3.509 237.62,0 c 3.794,0 38.344,0 43.354,0 0,2.89 -12.064,13.623 -12.064,18.573 -1.885,0 -18.66,0 -18.66,0 z"
           id="path7"
           style="fill:#ffffff;fill-opacity:1" /><path
           d="m 250.25,40.501 c 0,-4.952 -12.63,-15.063 -12.63,-18.573 3.794,0 38.344,0 43.354,0 0,2.89 -12.064,13.621 -12.064,18.573 -1.885,0 -18.66,0 -18.66,0 z"
           id="path8"
           style="fill:#ffffff;fill-opacity:1" /></g><g
         id="g10"
         style="fill:#ffffff;fill-opacity:1"><path
           d="m 184.876,18.573 c 0,-4.952 -12.63,-15.064 -12.63,-18.573 3.794,0 38.344,0 43.354,0 0,2.89 -12.064,13.623 -12.064,18.573 -1.884,0 -18.66,0 -18.66,0 z"
           id="path9"
           style="fill:#ffffff;fill-opacity:1" /><path
           d="m 184.876,40.501 c 0,-4.952 -12.63,-15.063 -12.63,-18.573 3.794,0 38.344,0 43.354,0 0,2.89 -12.064,13.621 -12.064,18.573 -1.884,0 -18.66,0 -18.66,0 z"
           id="path10"
           style="fill:#ffffff;fill-opacity:1" /></g><g
         id="g12"
         style="fill:#ffffff;fill-opacity:1"><path
           d="m 303.686,18.573 c 0,-4.952 -12.63,-15.064 -12.63,-18.573 3.794,0 38.344,0 43.354,0 0,2.89 -12.064,13.623 -12.064,18.573 -1.885,0 -18.66,0 -18.66,0 z"
           id="path11"
           style="fill:#ffffff;fill-opacity:1" /><path
           d="m 303.686,40.501 c 0,-4.952 -12.63,-15.063 -12.63,-18.573 3.794,0 38.344,0 43.354,0 0,2.89 -12.064,13.621 -12.064,18.573 -1.885,0 -18.66,0 -18.66,0 z"
           id="path12"
           style="fill:#ffffff;fill-opacity:1" /></g><g
         id="g14"
         style="fill:#ffffff;fill-opacity:1"><path
           d="m 355.416,18.573 c 0,-4.952 -12.63,-15.064 -12.63,-18.573 3.795,0 38.344,0 43.354,0 0,2.89 -12.064,13.623 -12.064,18.573 -1.885,0 -18.66,0 -18.66,0 z"
           id="path13"
           style="fill:#ffffff;fill-opacity:1" /><path
           d="m 355.416,40.501 c 0,-4.952 -12.63,-15.063 -12.63,-18.573 3.795,0 38.344,0 43.354,0 0,2.89 -12.064,13.621 -12.064,18.573 -1.885,0 -18.66,0 -18.66,0 z"
           id="path14"
           style="fill:#ffffff;fill-opacity:1" /></g><path
         fill="none"
         stroke="#000000"
         stroke-width="17.6482"
         d="m 21.688,43.414 c 0,94.816 76.863,171.676 171.68,171.676 94.815,0 171.683,-76.86 171.683,-171.676"
         id="path15"
         style="stroke:#fffffb;stroke-opacity:1" /><path
         fill="none"
         stroke="#000000"
         stroke-width="17.6482"
         d="m 73.419,43.414 c 0,66.247 53.703,119.948 119.949,119.948 66.247,0 119.95,-53.702 119.95,-119.948"
         id="path16"
         style="stroke:#ffffff;stroke-opacity:1" /><path
         fill="none"
         stroke="#000000"
         stroke-width="17.6482"
         d="m 126.855,43.414 c 0,36.734 29.778,66.512 66.513,66.512 36.735,0 66.514,-29.778 66.514,-66.512"
         id="path17"
         style="stroke:#ffffff;stroke-opacity:1" /><line
         fill="none"
         stroke="#000000"
         stroke-width="17.6482"
         x1="193.368"
         y1="43.414001"
         x2="193.368"
         y2="310.92599"
         id="line17"
         style="stroke:#ffffff;stroke-opacity:1" /><polygon
         points="99.716,319.182 99.716,307.414 193.342,286.824 286.446,307.414 286.446,319.182 "
         id="polygon17"
         style="fill:#ffffff;fill-opacity:1" /></g></g><path
     style="font-size:495.849px;line-height:1.25;font-family:IshmaelZY;-inkscape-font-specification:IshmaelZY;text-align:center;text-anchor:middle;fill:#0138b7;fill-opacity:1;stroke:#0138b7;stroke-width:6.27494;stroke-opacity:1"
     d="m 1080.6935,312.17831 16.5528,-32.21062 c 3.0097,-5.55103 7.8823,-8.32655 14.6181,-8.32655 h 77.3897 c 25.3666,0 38.0499,-9.05695 38.0499,-27.17086 0,-23.66494 -21.3539,-35.4974 -64.0615,-35.4974 -17.6277,0 -29.3794,0.43824 -35.2553,1.31471 -14.6181,2.33728 -25.6533,8.32656 -33.1056,17.96783 h -1.7197 c 11.0351,-26.00222 23.2169,-42.071 36.5451,-48.20636 8.3121,-3.79807 25.8681,-5.69711 52.6679,-5.69711 17.771,0 33.3206,3.87111 46.6488,11.61335 15.6213,9.20303 23.4319,21.91198 23.4319,38.12684 0,16.65311 -9.3154,32.50277 -27.9463,47.549 h 14.1881 c 9.4588,0 16.5528,-1.02255 21.2822,-3.06767 3.5828,-1.4608 7.0224,-4.7476 10.3187,-9.86039 l 2.7945,1.31471 c -11.8951,30.23854 -25.7248,45.3578 -41.4894,45.3578 h -133.0672 c -7.7391,0 -13.0417,2.26424 -15.908,6.79272 z m -55.4626,-107.58783 23.6469,-28.48557 c 8.1688,-9.78736 14.5463,-14.68103 19.1324,-14.68103 4.7293,0 7.094,5.03975 7.094,15.11926 v 34.18269 c 0,5.40496 -10.7486,16.21487 -32.2456,32.42974 0.7165,-14.16975 1.0032,-21.91199 0.8599,-23.2267 l -0.6449,-5.69712 c -0.7166,-6.42751 -3.5112,-9.64127 -8.3839,-9.64127 z m -238.18807,71.43306 c 0,-10.66383 7.88227,-20.81638 23.64683,-30.45766 l 1.28984,1.31472 c -5.016,3.652 -7.52401,8.47264 -7.52401,14.46191 0,8.61872 6.80743,12.92807 20.42227,12.92807 h 46.21886 v -65.73595 c -16.91105,0 -28.37619,1.31472 -34.3954,3.94416 -1.1465,0.29216 -4.65772,3.2868 -10.53362,8.98392 h -1.71976 c 9.74534,-31.11502 25.43824,-46.67253 47.0787,-46.67253 v -37.6886 h 4.08449 c 7.73895,25.12573 21.78374,37.6886 42.13438,37.6886 h 9.88865 c 22.78697,0 42.49268,5.77016 59.11713,17.31047 19.63401,13.87759 29.45111,33.45229 29.45111,58.72411 0,13.87758 -4.7294,27.02478 -14.1881,39.44157 -8.7422,10.95598 -18.55926,17.82173 -29.45111,20.59725 13.18486,-14.90015 19.77733,-29.58116 19.77733,-44.04307 0,-38.85725 -24.57841,-58.28588 -73.73517,-58.28588 h -15.90786 v 105.83488 h -2.36464 c -4.58609,-5.98928 -12.25341,-8.98392 -23.00196,-8.98392 h -58.04224 c -21.49715,0 -32.24572,-9.78735 -32.24572,-29.36205 z M 1126.6817,594.5608 c 14.3314,-9.20303 21.4972,-27.17086 21.4972,-53.90348 V 364.70411 c 0,-7.59614 2.508,-11.39422 7.524,-11.39422 4.0128,0 9.1721,2.92159 15.4779,8.76479 l 29.881,26.73262 c -11.3218,0 -17.7709,2.11815 -19.3473,6.35447 -0.86,1.75296 -1.2899,4.52848 -1.2899,8.32655 v 123.14534 c 0,18.8443 -3.7979,33.52532 -11.3935,44.04307 -11.6084,15.63055 -25.7249,23.59191 -42.3494,23.88407 z m 57.8273,-63.32563 c 0,-14.4619 9.0288,-28.7047 27.0865,-42.72836 18.2008,-14.16975 36.9033,-21.25462 56.1075,-21.25462 -36.1152,20.88942 -54.1728,39.1494 -54.1728,54.77995 0,19.86686 11.6801,29.80029 35.0403,29.80029 h 37.835 c 21.0671,0 31.6008,-9.78735 31.6008,-29.36205 0,-8.32656 -3.7262,-16.14183 -11.1785,-23.44582 l 1.2898,-1.31472 c 20.3506,10.22559 30.5259,24.54142 30.5259,42.94748 0,12.12463 -4.5861,22.35022 -13.7582,30.67678 -9.0287,8.32655 -21.2821,12.48982 -36.76,12.48982 h -48.3686 c -17.1977,0 -30.7409,-4.82063 -40.6296,-14.4619 -9.7454,-9.64128 -14.6181,-22.35022 -14.6181,-38.12685 z M 943.74121,503.40696 c 9.74537,-21.03551 19.06079,-34.69398 27.94627,-40.97541 8.88551,-6.42751 23.14526,-9.64127 42.77922,-9.64127 h 24.9366 c 21.6405,0 40.2714,5.18583 55.8926,15.5575 19.6341,13.29327 29.4511,32.42973 29.4511,57.40939 0,15.63056 -5.1593,30.60374 -15.4779,44.91956 -6.4491,8.47263 -15.6213,14.68103 -27.5163,18.62518 12.4683,-13.43934 18.7025,-29.21596 18.7025,-47.32987 0,-15.92271 -5.5176,-28.92382 -16.5528,-39.00332 -11.8951,-10.66384 -28.018,-15.99576 -48.3686,-15.99576 h -33.1055 c -27.94627,0 -46.7921,5.47801 -56.53748,16.434 z m 8.38388,35.05916 c 0,-7.8883 2.43635,-14.38886 7.30903,-19.50165 4.87269,-5.11281 11.17848,-7.66921 18.91745,-7.66921 16.05125,0 25.36663,7.59616 27.94633,22.78847 -2.293,-4.3824 -6.2342,-6.5736 -11.82342,-6.5736 -7.16575,0 -10.74858,4.82063 -10.74858,14.46191 v 48.6446 C 962.65869,576.30081 952.12509,558.91731 952.12509,538.46612 Z M 779.93307,502.09223 c 9.60206,-23.51885 21.78376,-38.19988 36.54512,-44.04307 6.73577,-2.92161 20.13565,-4.3824 40.19964,-4.3824 20.064,0 36.61679,4.67455 49.65838,14.02366 16.91107,12.41679 25.36661,31.77238 25.36661,58.06675 0,15.92271 -5.016,30.5307 -15.04799,43.82397 -6.30583,8.61871 -15.69291,14.68103 -28.16124,18.18694 12.75496,-12.12463 19.13244,-28.12038 19.13244,-47.98724 0,-35.20525 -19.84902,-52.80788 -59.54705,-52.80788 -20.2073,0 -33.03393,0.43825 -38.47987,1.31473 -11.89508,1.75296 -21.2105,6.35447 -27.94627,13.80454 z m -69.43572,-16.43398 25.36662,-31.11501 c 8.02559,-9.78736 14.40308,-14.68103 19.13244,-14.68103 5.016,0 7.524,5.03975 7.524,15.11926 l -4.94434,255.05546 c 0,6.28143 0.42995,10.15256 1.28983,11.61335 1.14651,2.48336 4.94434,3.72504 11.39348,3.72504 -4.87268,9.05696 -12.61166,13.58543 -23.21691,13.58543 -4.58605,0 -7.45234,-1.53384 -8.59885,-4.60152 -1.14651,-2.9216 -1.86308,-8.39959 -2.14971,-16.43398 l -7.95394,-222.62573 c -0.28662,-6.42752 -3.0096,-9.64127 -8.16891,-9.64127 z"
     id="text1"
     aria-label="בית אהרן"
     sodipodi:nodetypes="ccssssccccscscscccssccccssscccscsccssccccccccsscsccsscccssscssscccssccsccssssccscsscsccsscsccscssccssscsscsccscsccsscccccsccccscccsc" /></svg>
