<?xml version="1.0" encoding="UTF-8" standalone="no"?>
<svg
   width="2100"
   height="692.82001"
   version="1.1"
   id="svg1"
   sodipodi:docname="beth-aharon.svg"
   xml:space="preserve"
   inkscape:version="1.3.2 (091e20e, 2023-11-25, custom)"
   xmlns:inkscape="http://www.inkscape.org/namespaces/inkscape"
   xmlns:sodipodi="http://sodipodi.sourceforge.net/DTD/sodipodi-0.dtd"
   xmlns="http://www.w3.org/2000/svg"
   xmlns:svg="http://www.w3.org/2000/svg"><defs
     id="defs1" /><sodipodi:namedview
     id="namedview1"
     pagecolor="#ffffff"
     bordercolor="#666666"
     borderopacity="1.0"
     inkscape:showpageshadow="2"
     inkscape:pageopacity="0.0"
     inkscape:pagecheckerboard="0"
     inkscape:deskcolor="#d1d1d1"
     inkscape:zoom="0.42254842"
     inkscape:cx="1373.8071"
     inkscape:cy="876.8226"
     inkscape:window-width="2462"
     inkscape:window-height="1406"
     inkscape:window-x="-11"
     inkscape:window-y="-11"
     inkscape:window-maximized="1"
     inkscape:current-layer="svg1" /><path
     d="M 47.631413,492.11477 552.36859,492.11491 300,54.999953 Z M 300,637.81981 552.36851,200.70493 47.631403,200.70481 Z"
     fill="none"
     stroke="#0000ff"
     stroke-width="55"
     id="path1"
     style="fill:#000080;fill-opacity:1" /><path
     sodipodi:type="star"
     style="fill:#000080;fill-opacity:1;stroke:none;stroke-width:22;paint-order:stroke fill markers"
     id="path2"
     inkscape:flatsided="false"
     sodipodi:sides="3"
     sodipodi:cx="20.116037"
     sodipodi:cy="72.772728"
     sodipodi:r1="98.024513"
     sodipodi:r2="49.012257"
     sodipodi:arg1="1.5707963"
     sodipodi:arg2="2.6179939"
     inkscape:rounded="0"
     inkscape:randomized="0"
     d="m 20.11604,170.79724 -42.445863,-73.518385 -42.44586,-73.518381 84.891721,-3e-6 84.891712,-2e-6 -42.445854,73.518388 z"
     inkscape:transform-center-y="24.506129"
     transform="translate(160.12333,204.69025)" /><path
     sodipodi:type="star"
     style="fill:#000080;fill-opacity:1;stroke:none;stroke-width:22;paint-order:stroke fill markers"
     id="path3"
     inkscape:flatsided="false"
     sodipodi:sides="3"
     sodipodi:cx="99.569305"
     sodipodi:cy="463.54114"
     sodipodi:r1="84.711128"
     sodipodi:r2="42.355564"
     sodipodi:arg1="0.52359878"
     sodipodi:arg2="1.5707963"
     inkscape:rounded="0"
     inkscape:randomized="0"
     d="m 172.93129,505.8967 -73.361983,0 -73.361991,0 36.680994,-63.53334 36.680996,-63.53335 36.680994,63.53334 z"
     inkscape:transform-center-y="-21.177781"
     transform="translate(69.108136,-41.312896)" /><path
     sodipodi:type="star"
     style="fill:#000080;fill-opacity:1;stroke:none;stroke-width:22;paint-order:stroke fill markers"
     id="path2-3"
     inkscape:flatsided="false"
     sodipodi:sides="3"
     sodipodi:cx="20.116037"
     sodipodi:cy="72.772728"
     sodipodi:r1="98.024513"
     sodipodi:r2="49.012257"
     sodipodi:arg1="1.5707963"
     sodipodi:arg2="2.6179939"
     inkscape:rounded="0"
     inkscape:randomized="0"
     d="m 20.11604,170.79724 -42.445863,-73.518385 -42.44586,-73.518381 84.891721,-3e-6 84.891712,-2e-6 -42.445854,73.518388 z"
     inkscape:transform-center-y="24.506129"
     transform="translate(399.60388,204.38773)" /><path
     sodipodi:type="star"
     style="fill:#000080;fill-opacity:1;stroke:none;stroke-width:22;paint-order:stroke fill markers"
     id="path3-5"
     inkscape:flatsided="false"
     sodipodi:sides="3"
     sodipodi:cx="99.569305"
     sodipodi:cy="463.54114"
     sodipodi:r1="84.711128"
     sodipodi:r2="42.355564"
     sodipodi:arg1="0.52359878"
     sodipodi:arg2="1.5707963"
     inkscape:rounded="0"
     inkscape:randomized="0"
     d="m 172.93129,505.8967 -73.361983,0 -73.361991,0 36.680994,-63.53334 36.680996,-63.53335 36.680994,63.53334 z"
     inkscape:transform-center-y="-21.177781"
     transform="translate(331.81088,-41.171688)" /><path
     sodipodi:type="star"
     style="fill:#0000ff;fill-opacity:1;stroke:none;stroke-width:22;paint-order:stroke fill markers"
     id="path4"
     inkscape:flatsided="false"
     sodipodi:sides="3"
     sodipodi:cx="247.66818"
     sodipodi:cy="184.91443"
     sodipodi:r1="65.456718"
     sodipodi:r2="32.728359"
     sodipodi:arg1="0.52359878"
     sodipodi:arg2="1.5707963"
     inkscape:rounded="0"
     inkscape:randomized="0"
     d="m 304.35536,217.64279 -56.68718,0 -56.68718,0 28.34359,-49.09254 28.34359,-49.09254 28.34359,49.09254 z"
     inkscape:transform-center-y="-16.36418"
     transform="translate(53.549879,-30.121807)" /><path
     sodipodi:type="star"
     style="fill:#0000ff;fill-opacity:1;stroke:none;stroke-width:22;paint-order:stroke fill markers"
     id="path5"
     inkscape:flatsided="false"
     sodipodi:sides="3"
     sodipodi:cx="-87.018555"
     sodipodi:cy="-0.83671689"
     sodipodi:r1="74.847588"
     sodipodi:r2="37.423794"
     sodipodi:arg1="1.5707963"
     sodipodi:arg2="2.6179939"
     inkscape:rounded="0"
     inkscape:randomized="0"
     d="m -87.018553,74.010871 -32.409957,-56.135692 -32.40996,-56.135688 64.819916,-2e-6 64.819911,-10e-7 -32.409956,56.135693 z"
     inkscape:transform-center-y="18.711896"
     transform="translate(391.58349,531.31521)" /><g
     id="g5"
     transform="matrix(0.68804849,0,0,0.68804849,168.36141,236.17608)"><g
       id="g2"
       style="fill:#ffffff;fill-opacity:1"><path
         d="M 12.628,18.573 C 12.628,13.621 0,3.509 0,0 c 3.793,0 38.342,0 43.352,0 0,2.89 -12.064,13.623 -12.064,18.573 -1.885,0 -18.66,0 -18.66,0 z"
         id="path1-3"
         style="fill:#ffffff;fill-opacity:1" /><path
         d="M 12.628,40.501 C 12.628,35.549 0,25.438 0,21.928 c 3.793,0 38.342,0 43.352,0 0,2.89 -12.064,13.621 -12.064,18.573 -1.885,0 -18.66,0 -18.66,0 z"
         id="path2-7"
         style="fill:#ffffff;fill-opacity:1" /></g><g
       id="g4"
       style="fill:#ffffff;fill-opacity:1"><path
         d="M 64.359,18.573 C 64.359,13.621 51.731,3.509 51.731,0 c 3.793,0 38.343,0 43.352,0 0,2.89 -12.064,13.623 -12.064,18.573 -1.885,0 -18.66,0 -18.66,0 z"
         id="path3-9"
         style="fill:#ffffff;fill-opacity:1" /><path
         d="m 64.359,40.501 c 0,-4.952 -12.628,-15.063 -12.628,-18.573 3.793,0 38.343,0 43.352,0 0,2.89 -12.064,13.621 -12.064,18.573 -1.885,0 -18.66,0 -18.66,0 z"
         id="path4-5"
         style="fill:#ffffff;fill-opacity:1" /></g><g
       id="g6"
       style="fill:#ffffff;fill-opacity:1"><path
         d="m 117.795,18.573 c 0,-4.952 -12.629,-15.064 -12.629,-18.573 3.793,0 38.343,0 43.353,0 0,2.89 -12.064,13.623 -12.064,18.573 -1.885,0 -18.66,0 -18.66,0 z"
         id="path5-6"
         style="fill:#ffffff;fill-opacity:1" /><path
         d="m 117.795,40.501 c 0,-4.952 -12.629,-15.063 -12.629,-18.573 3.793,0 38.343,0 43.353,0 0,2.89 -12.064,13.621 -12.064,18.573 -1.885,0 -18.66,0 -18.66,0 z"
         id="path6"
         style="fill:#ffffff;fill-opacity:1" /></g><g
       id="g8"
       style="fill:#ffffff;fill-opacity:1"><path
         d="M 250.25,18.573 C 250.25,13.621 237.62,3.509 237.62,0 c 3.794,0 38.344,0 43.354,0 0,2.89 -12.064,13.623 -12.064,18.573 -1.885,0 -18.66,0 -18.66,0 z"
         id="path7"
         style="fill:#ffffff;fill-opacity:1" /><path
         d="m 250.25,40.501 c 0,-4.952 -12.63,-15.063 -12.63,-18.573 3.794,0 38.344,0 43.354,0 0,2.89 -12.064,13.621 -12.064,18.573 -1.885,0 -18.66,0 -18.66,0 z"
         id="path8"
         style="fill:#ffffff;fill-opacity:1" /></g><g
       id="g10"
       style="fill:#ffffff;fill-opacity:1"><path
         d="m 184.876,18.573 c 0,-4.952 -12.63,-15.064 -12.63,-18.573 3.794,0 38.344,0 43.354,0 0,2.89 -12.064,13.623 -12.064,18.573 -1.884,0 -18.66,0 -18.66,0 z"
         id="path9"
         style="fill:#ffffff;fill-opacity:1" /><path
         d="m 184.876,40.501 c 0,-4.952 -12.63,-15.063 -12.63,-18.573 3.794,0 38.344,0 43.354,0 0,2.89 -12.064,13.621 -12.064,18.573 -1.884,0 -18.66,0 -18.66,0 z"
         id="path10"
         style="fill:#ffffff;fill-opacity:1" /></g><g
       id="g12"
       style="fill:#ffffff;fill-opacity:1"><path
         d="m 303.686,18.573 c 0,-4.952 -12.63,-15.064 -12.63,-18.573 3.794,0 38.344,0 43.354,0 0,2.89 -12.064,13.623 -12.064,18.573 -1.885,0 -18.66,0 -18.66,0 z"
         id="path11"
         style="fill:#ffffff;fill-opacity:1" /><path
         d="m 303.686,40.501 c 0,-4.952 -12.63,-15.063 -12.63,-18.573 3.794,0 38.344,0 43.354,0 0,2.89 -12.064,13.621 -12.064,18.573 -1.885,0 -18.66,0 -18.66,0 z"
         id="path12"
         style="fill:#ffffff;fill-opacity:1" /></g><g
       id="g14"
       style="fill:#ffffff;fill-opacity:1"><path
         d="m 355.416,18.573 c 0,-4.952 -12.63,-15.064 -12.63,-18.573 3.795,0 38.344,0 43.354,0 0,2.89 -12.064,13.623 -12.064,18.573 -1.885,0 -18.66,0 -18.66,0 z"
         id="path13"
         style="fill:#ffffff;fill-opacity:1" /><path
         d="m 355.416,40.501 c 0,-4.952 -12.63,-15.063 -12.63,-18.573 3.795,0 38.344,0 43.354,0 0,2.89 -12.064,13.621 -12.064,18.573 -1.885,0 -18.66,0 -18.66,0 z"
         id="path14"
         style="fill:#ffffff;fill-opacity:1" /></g><path
       fill="none"
       stroke="#000000"
       stroke-width="17.6482"
       d="m 21.688,43.414 c 0,94.816 76.863,171.676 171.68,171.676 94.815,0 171.683,-76.86 171.683,-171.676"
       id="path15"
       style="stroke:#fffffb;stroke-opacity:1" /><path
       fill="none"
       stroke="#000000"
       stroke-width="17.6482"
       d="m 73.419,43.414 c 0,66.247 53.703,119.948 119.949,119.948 66.247,0 119.95,-53.702 119.95,-119.948"
       id="path16"
       style="stroke:#ffffff;stroke-opacity:1" /><path
       fill="none"
       stroke="#000000"
       stroke-width="17.6482"
       d="m 126.855,43.414 c 0,36.734 29.778,66.512 66.513,66.512 36.735,0 66.514,-29.778 66.514,-66.512"
       id="path17"
       style="stroke:#ffffff;stroke-opacity:1" /><line
       fill="none"
       stroke="#000000"
       stroke-width="17.6482"
       x1="193.368"
       y1="43.414001"
       x2="193.368"
       y2="310.92599"
       id="line17"
       style="stroke:#ffffff;stroke-opacity:1" /><polygon
       points="286.446,307.414 286.446,319.182 99.716,319.182 99.716,307.414 193.342,286.824 "
       id="polygon17"
       style="fill:#ffffff;fill-opacity:1" /></g><path
     style="font-size:495.849px;line-height:1.25;font-family:IshmaelZY;-inkscape-font-specification:IshmaelZY;text-align:center;text-anchor:middle;fill:#000080;stroke:#000080;stroke-width:7;stroke-opacity:1"
     d="m 1872.353,430.31748 18.6428,-35.59073 q 5.0844,-9.20032 16.4637,-9.20032 h 87.161 q 42.8541,0 42.8541,-30.02211 0,-39.22243 -72.1499,-39.22243 -29.78,0 -39.7067,1.45268 -24.6956,3.87383 -37.2855,19.85333 h -1.9369 q 18.6428,-43.09625 41.1594,-53.26503 14.0425,-6.29495 59.3178,-6.29495 30.0221,0 52.5387,12.83203 26.3904,15.25316 26.3904,42.12779 0,27.60097 -31.4748,52.53869 h 15.9795 q 15.9795,0 23.9693,-3.38959 6.0528,-2.42114 11.6215,-10.89512 l 3.1474,1.45268 q -20.0954,50.11755 -46.7279,50.11755 h -149.8684 q -13.0742,0 -17.9165,7.50553 z m -62.4654,-118.87786 26.6325,-31.47479 q 13.8005,-16.22163 21.5482,-16.22163 7.9897,0 7.9897,16.70585 v 37.76975 q 0,8.95821 -36.3171,35.83284 1.2106,-23.48504 0.9685,-25.66406 l -0.7263,-6.29496 q -1.2106,-10.653 -9.4425,-10.653 z m -268.2619,78.92909 q 0,-17.67431 26.6325,-33.65382 l 1.4527,1.45268 q -8.474,6.05285 -8.474,15.97951 0,14.28472 23.0008,14.28472 h 52.0545 v -72.63414 q -28.5694,0 -38.7382,4.35805 -1.9369,0.48423 -11.8636,9.92667 h -1.9369 q 16.4637,-51.57024 53.0229,-51.57024 v -41.64356 h 4.6002 q 13.0741,41.64356 47.4543,41.64356 h 11.1372 q 38.4961,0 66.5813,19.12699 33.1696,23.00081 33.1696,64.88649 0,23.00081 -15.9795,43.58048 -14.769,18.15853 -33.1696,22.75869 22.2744,-24.6956 22.2744,-48.66486 0,-64.40227 -83.045,-64.40227 h -17.9164 v 116.94096 h -2.6632 q -7.7477,-9.92667 -25.9062,-9.92667 h -65.3707 q -36.3171,0 -36.3171,-32.44324 z m -360.2654,44.30682 q 24.2114,-15.25317 24.2114,-59.55999 V 180.69818 q 0,-12.58991 8.474,-12.58991 6.7792,0 17.4322,9.68455 l 33.6538,29.53788 q -19.127,0 -21.7902,7.0213 -1.4527,2.90536 -1.4527,9.20032 v 136.06794 q 0,31.23267 -12.8321,48.66486 -19.6112,25.90618 -47.6964,26.39041 z m 65.1286,-69.97088 q 0,-23.96927 30.5064,-47.21219 30.7484,-23.48503 63.1917,-23.48503 -61.0127,34.62226 -61.0127,60.52844 0,32.92747 39.4645,32.92747 h 42.6121 q 35.5907,0 35.5907,-32.44324 0,-13.80049 -12.5899,-25.90618 l 1.4527,-1.45268 q 34.3801,16.94796 34.3801,47.4543 0,20.09544 -15.4953,33.89593 -15.2531,13.80048 -41.4014,13.80048 h -54.4756 q -29.0537,0 -45.7595,-15.97951 -16.4638,-15.97951 -16.4638,-42.12779 z M 975.32151,333.9562 q 16.46374,-34.86439 31.47479,-45.27528 15.0111,-10.653 48.1806,-10.653 h 28.0852 q 36.5592,0 62.9496,17.19007 33.1696,22.03236 33.1696,63.43381 0,25.90618 -17.4322,49.63332 -10.8951,14.0426 -30.9905,20.57967 21.0639,-22.27446 21.0639,-52.29657 0,-26.3904 -18.6428,-43.09625 -20.0955,-17.67431 -54.4756,-17.67431 h -37.2855 q -47.21221,0 -63.67595,18.15854 z m 9.44244,38.7382 q 0,-13.07414 8.23187,-21.54812 8.23188,-8.47399 21.30598,-8.47399 27.1168,0 31.4748,25.17984 -3.8738,-7.26342 -13.3162,-7.26342 -12.1057,0 -12.1057,15.97951 v 53.74926 Q 984.76395,406.59033 984.76395,372.6944 Z M 790.83082,332.50351 q 16.22163,-38.98031 41.15934,-48.66486 11.37935,-4.84228 45.27528,-4.84228 33.89593,0 55.92828,15.49528 28.56942,20.57967 28.56942,64.16015 0,26.3904 -16.94796,48.42276 -10.65301,14.28471 -31.7169,20.09544 21.54812,-20.09544 21.54812,-53.02292 0,-58.34942 -67.06551,-58.34942 -34.13804,0 -43.33837,1.45269 -20.09544,2.90536 -31.47479,15.25316 z m -78.20273,-18.15853 28.56943,-34.38015 q 13.55837,-16.22163 21.54812,-16.22163 8.47398,0 8.47398,16.70585 l -5.56861,281.82043 q 0,10.41089 1.45268,12.83203 1.93691,4.11594 12.83203,4.11594 -8.23187,15.01105 -26.14829,15.01105 -7.74764,0 -9.68455,-5.08439 -1.93691,-4.84228 -2.42114,-18.15853 l -8.95821,-245.98759 q -0.48422,-10.65301 -9.20032,-10.65301 z"
     id="text1"
     aria-label="בית אהרן" /></svg>
