<?xml version="1.0" encoding="UTF-8" standalone="no"?>
<svg
   width="2100"
   height="692.82001"
   version="1.1"
   id="svg1"
   sodipodi:docname="beth-aharon.svg"
   xml:space="preserve"
   inkscape:version="1.3.2 (091e20e, 2023-11-25, custom)"
   xmlns:inkscape="http://www.inkscape.org/namespaces/inkscape"
   xmlns:sodipodi="http://sodipodi.sourceforge.net/DTD/sodipodi-0.dtd"
   xmlns="http://www.w3.org/2000/svg"
   xmlns:svg="http://www.w3.org/2000/svg"><defs
     id="defs1" /><sodipodi:namedview
     id="namedview1"
     pagecolor="#ffffff"
     bordercolor="#666666"
     borderopacity="1.0"
     inkscape:showpageshadow="2"
     inkscape:pageopacity="0.0"
     inkscape:pagecheckerboard="0"
     inkscape:deskcolor="#d1d1d1"
     inkscape:zoom="0.29878685"
     inkscape:cx="1506.0904"
     inkscape:cy="1099.446"
     inkscape:window-width="2462"
     inkscape:window-height="1406"
     inkscape:window-x="-11"
     inkscape:window-y="-11"
     inkscape:window-maximized="1"
     inkscape:current-layer="svg1" /><path
     d="M 47.631413,492.11477 552.36859,492.11491 300,54.999953 Z M 300,637.81981 552.36851,200.70493 47.631403,200.70481 Z"
     fill="none"
     stroke="#0000ff"
     stroke-width="55"
     id="path1"
     style="fill:#000080;fill-opacity:1" /><path
     sodipodi:type="star"
     style="fill:#000080;fill-opacity:1;stroke:none;stroke-width:22;paint-order:stroke fill markers"
     id="path2"
     inkscape:flatsided="false"
     sodipodi:sides="3"
     sodipodi:cx="20.116037"
     sodipodi:cy="72.772728"
     sodipodi:r1="98.024513"
     sodipodi:r2="49.012257"
     sodipodi:arg1="1.5707963"
     sodipodi:arg2="2.6179939"
     inkscape:rounded="0"
     inkscape:randomized="0"
     d="m 20.11604,170.79724 -42.445863,-73.518385 -42.44586,-73.518381 84.891721,-3e-6 84.891712,-2e-6 -42.445854,73.518388 z"
     inkscape:transform-center-y="24.506129"
     transform="translate(160.12333,204.69025)" /><path
     sodipodi:type="star"
     style="fill:#000080;fill-opacity:1;stroke:none;stroke-width:22;paint-order:stroke fill markers"
     id="path3"
     inkscape:flatsided="false"
     sodipodi:sides="3"
     sodipodi:cx="99.569305"
     sodipodi:cy="463.54114"
     sodipodi:r1="84.711128"
     sodipodi:r2="42.355564"
     sodipodi:arg1="0.52359878"
     sodipodi:arg2="1.5707963"
     inkscape:rounded="0"
     inkscape:randomized="0"
     d="m 172.93129,505.8967 -73.361983,0 -73.361991,0 36.680994,-63.53334 36.680996,-63.53335 36.680994,63.53334 z"
     inkscape:transform-center-y="-21.177781"
     transform="translate(69.108136,-41.312896)" /><path
     sodipodi:type="star"
     style="fill:#000080;fill-opacity:1;stroke:none;stroke-width:22;paint-order:stroke fill markers"
     id="path2-3"
     inkscape:flatsided="false"
     sodipodi:sides="3"
     sodipodi:cx="20.116037"
     sodipodi:cy="72.772728"
     sodipodi:r1="98.024513"
     sodipodi:r2="49.012257"
     sodipodi:arg1="1.5707963"
     sodipodi:arg2="2.6179939"
     inkscape:rounded="0"
     inkscape:randomized="0"
     d="m 20.11604,170.79724 -42.445863,-73.518385 -42.44586,-73.518381 84.891721,-3e-6 84.891712,-2e-6 -42.445854,73.518388 z"
     inkscape:transform-center-y="24.506129"
     transform="translate(399.60388,204.38773)" /><path
     sodipodi:type="star"
     style="fill:#000080;fill-opacity:1;stroke:none;stroke-width:22;paint-order:stroke fill markers"
     id="path3-5"
     inkscape:flatsided="false"
     sodipodi:sides="3"
     sodipodi:cx="99.569305"
     sodipodi:cy="463.54114"
     sodipodi:r1="84.711128"
     sodipodi:r2="42.355564"
     sodipodi:arg1="0.52359878"
     sodipodi:arg2="1.5707963"
     inkscape:rounded="0"
     inkscape:randomized="0"
     d="m 172.93129,505.8967 -73.361983,0 -73.361991,0 36.680994,-63.53334 36.680996,-63.53335 36.680994,63.53334 z"
     inkscape:transform-center-y="-21.177781"
     transform="translate(331.81088,-41.171688)" /><path
     sodipodi:type="star"
     style="fill:#0000ff;fill-opacity:1;stroke:none;stroke-width:22;paint-order:stroke fill markers"
     id="path4"
     inkscape:flatsided="false"
     sodipodi:sides="3"
     sodipodi:cx="247.66818"
     sodipodi:cy="184.91443"
     sodipodi:r1="65.456718"
     sodipodi:r2="32.728359"
     sodipodi:arg1="0.52359878"
     sodipodi:arg2="1.5707963"
     inkscape:rounded="0"
     inkscape:randomized="0"
     d="m 304.35536,217.64279 -56.68718,0 -56.68718,0 28.34359,-49.09254 28.34359,-49.09254 28.34359,49.09254 z"
     inkscape:transform-center-y="-16.36418"
     transform="translate(53.549879,-30.121807)" /><path
     sodipodi:type="star"
     style="fill:#0000ff;fill-opacity:1;stroke:none;stroke-width:22;paint-order:stroke fill markers"
     id="path5"
     inkscape:flatsided="false"
     sodipodi:sides="3"
     sodipodi:cx="-87.018555"
     sodipodi:cy="-0.83671689"
     sodipodi:r1="74.847588"
     sodipodi:r2="37.423794"
     sodipodi:arg1="1.5707963"
     sodipodi:arg2="2.6179939"
     inkscape:rounded="0"
     inkscape:randomized="0"
     d="m -87.018553,74.010871 -32.409957,-56.135692 -32.40996,-56.135688 64.819916,-2e-6 64.819911,-10e-7 -32.409956,56.135693 z"
     inkscape:transform-center-y="18.711896"
     transform="translate(391.58349,531.31521)" /><g
     id="g5"
     transform="matrix(0.68804849,0,0,0.68804849,168.36141,236.17608)"><g
       id="g2"
       style="fill:#ffffff;fill-opacity:1"><path
         d="M 12.628,18.573 C 12.628,13.621 0,3.509 0,0 c 3.793,0 38.342,0 43.352,0 0,2.89 -12.064,13.623 -12.064,18.573 -1.885,0 -18.66,0 -18.66,0 z"
         id="path1-3"
         style="fill:#ffffff;fill-opacity:1" /><path
         d="M 12.628,40.501 C 12.628,35.549 0,25.438 0,21.928 c 3.793,0 38.342,0 43.352,0 0,2.89 -12.064,13.621 -12.064,18.573 -1.885,0 -18.66,0 -18.66,0 z"
         id="path2-7"
         style="fill:#ffffff;fill-opacity:1" /></g><g
       id="g4"
       style="fill:#ffffff;fill-opacity:1"><path
         d="M 64.359,18.573 C 64.359,13.621 51.731,3.509 51.731,0 c 3.793,0 38.343,0 43.352,0 0,2.89 -12.064,13.623 -12.064,18.573 -1.885,0 -18.66,0 -18.66,0 z"
         id="path3-9"
         style="fill:#ffffff;fill-opacity:1" /><path
         d="m 64.359,40.501 c 0,-4.952 -12.628,-15.063 -12.628,-18.573 3.793,0 38.343,0 43.352,0 0,2.89 -12.064,13.621 -12.064,18.573 -1.885,0 -18.66,0 -18.66,0 z"
         id="path4-5"
         style="fill:#ffffff;fill-opacity:1" /></g><g
       id="g6"
       style="fill:#ffffff;fill-opacity:1"><path
         d="m 117.795,18.573 c 0,-4.952 -12.629,-15.064 -12.629,-18.573 3.793,0 38.343,0 43.353,0 0,2.89 -12.064,13.623 -12.064,18.573 -1.885,0 -18.66,0 -18.66,0 z"
         id="path5-6"
         style="fill:#ffffff;fill-opacity:1" /><path
         d="m 117.795,40.501 c 0,-4.952 -12.629,-15.063 -12.629,-18.573 3.793,0 38.343,0 43.353,0 0,2.89 -12.064,13.621 -12.064,18.573 -1.885,0 -18.66,0 -18.66,0 z"
         id="path6"
         style="fill:#ffffff;fill-opacity:1" /></g><g
       id="g8"
       style="fill:#ffffff;fill-opacity:1"><path
         d="M 250.25,18.573 C 250.25,13.621 237.62,3.509 237.62,0 c 3.794,0 38.344,0 43.354,0 0,2.89 -12.064,13.623 -12.064,18.573 -1.885,0 -18.66,0 -18.66,0 z"
         id="path7"
         style="fill:#ffffff;fill-opacity:1" /><path
         d="m 250.25,40.501 c 0,-4.952 -12.63,-15.063 -12.63,-18.573 3.794,0 38.344,0 43.354,0 0,2.89 -12.064,13.621 -12.064,18.573 -1.885,0 -18.66,0 -18.66,0 z"
         id="path8"
         style="fill:#ffffff;fill-opacity:1" /></g><g
       id="g10"
       style="fill:#ffffff;fill-opacity:1"><path
         d="m 184.876,18.573 c 0,-4.952 -12.63,-15.064 -12.63,-18.573 3.794,0 38.344,0 43.354,0 0,2.89 -12.064,13.623 -12.064,18.573 -1.884,0 -18.66,0 -18.66,0 z"
         id="path9"
         style="fill:#ffffff;fill-opacity:1" /><path
         d="m 184.876,40.501 c 0,-4.952 -12.63,-15.063 -12.63,-18.573 3.794,0 38.344,0 43.354,0 0,2.89 -12.064,13.621 -12.064,18.573 -1.884,0 -18.66,0 -18.66,0 z"
         id="path10"
         style="fill:#ffffff;fill-opacity:1" /></g><g
       id="g12"
       style="fill:#ffffff;fill-opacity:1"><path
         d="m 303.686,18.573 c 0,-4.952 -12.63,-15.064 -12.63,-18.573 3.794,0 38.344,0 43.354,0 0,2.89 -12.064,13.623 -12.064,18.573 -1.885,0 -18.66,0 -18.66,0 z"
         id="path11"
         style="fill:#ffffff;fill-opacity:1" /><path
         d="m 303.686,40.501 c 0,-4.952 -12.63,-15.063 -12.63,-18.573 3.794,0 38.344,0 43.354,0 0,2.89 -12.064,13.621 -12.064,18.573 -1.885,0 -18.66,0 -18.66,0 z"
         id="path12"
         style="fill:#ffffff;fill-opacity:1" /></g><g
       id="g14"
       style="fill:#ffffff;fill-opacity:1"><path
         d="m 355.416,18.573 c 0,-4.952 -12.63,-15.064 -12.63,-18.573 3.795,0 38.344,0 43.354,0 0,2.89 -12.064,13.623 -12.064,18.573 -1.885,0 -18.66,0 -18.66,0 z"
         id="path13"
         style="fill:#ffffff;fill-opacity:1" /><path
         d="m 355.416,40.501 c 0,-4.952 -12.63,-15.063 -12.63,-18.573 3.795,0 38.344,0 43.354,0 0,2.89 -12.064,13.621 -12.064,18.573 -1.885,0 -18.66,0 -18.66,0 z"
         id="path14"
         style="fill:#ffffff;fill-opacity:1" /></g><path
       fill="none"
       stroke="#000000"
       stroke-width="17.6482"
       d="m 21.688,43.414 c 0,94.816 76.863,171.676 171.68,171.676 94.815,0 171.683,-76.86 171.683,-171.676"
       id="path15"
       style="stroke:#fffffb;stroke-opacity:1" /><path
       fill="none"
       stroke="#000000"
       stroke-width="17.6482"
       d="m 73.419,43.414 c 0,66.247 53.703,119.948 119.949,119.948 66.247,0 119.95,-53.702 119.95,-119.948"
       id="path16"
       style="stroke:#ffffff;stroke-opacity:1" /><path
       fill="none"
       stroke="#000000"
       stroke-width="17.6482"
       d="m 126.855,43.414 c 0,36.734 29.778,66.512 66.513,66.512 36.735,0 66.514,-29.778 66.514,-66.512"
       id="path17"
       style="stroke:#ffffff;stroke-opacity:1" /><line
       fill="none"
       stroke="#000000"
       stroke-width="17.6482"
       x1="193.368"
       y1="43.414001"
       x2="193.368"
       y2="310.92599"
       id="line17"
       style="stroke:#ffffff;stroke-opacity:1" /><polygon
       points="286.446,307.414 286.446,319.182 99.716,319.182 99.716,307.414 193.342,286.824 "
       id="polygon17"
       style="fill:#ffffff;fill-opacity:1" /></g><text
     xml:space="preserve"
     style="font-style:normal;font-variant:normal;font-weight:normal;font-stretch:normal;font-size:495.849px;line-height:1.25;font-family:IshmaelZY;-inkscape-font-specification:IshmaelZY;text-align:center;text-anchor:middle;stroke-width:7;stroke:#000080;stroke-opacity:1;stroke-dasharray:none"
     x="1400.9575"
     y="422.81195"
     id="text1"><tspan
       sodipodi:role="line"
       id="tspan1"
       x="1400.9575"
       y="422.81195"
       style="fill:#000080;fill-opacity:1;stroke-width:7;stroke:#000080;stroke-opacity:1;stroke-dasharray:none">בית אהרן</tspan></text></svg>
